<svg width="160" height="213" viewBox="0 0 160 213" fill="none" xmlns="http://www.w3.org/2000/svg">
<mask id="mask0_14_12" style="mask-type:luminance" maskUnits="userSpaceOnUse" x="0" y="0" width="160" height="213">
<path d="M159.734 0H0V212.096H159.734V0Z" fill="white"/>
</mask>
<g mask="url(#mask0_14_12)">
<path d="M135.848 42.546C129.515 42.5532 123.443 45.0723 118.966 49.5507C114.488 54.0291 111.969 60.101 111.963 66.434V125.934C112.03 130.192 111.25 134.42 109.667 138.373C108.084 142.326 105.731 145.924 102.744 148.959C99.7565 151.994 96.1956 154.404 92.2681 156.049C88.3406 157.694 84.125 158.541 79.867 158.541C75.6089 158.541 71.3934 157.694 67.4659 156.049C63.5384 154.404 59.9774 151.994 56.9904 148.959C54.0033 145.924 51.6499 142.326 50.0671 138.373C48.4843 134.42 47.7038 130.192 47.771 125.934V66.434C47.771 60.0992 45.2545 54.0238 40.7751 49.5444C36.2957 45.065 30.2203 42.5485 23.8855 42.5485C17.5507 42.5485 11.4753 45.065 6.99588 49.5444C2.51648 54.0238 0 60.0992 0 66.434V132.234C-3.12575e-07 142.722 2.06581 153.108 6.0795 162.798C10.0932 172.488 15.9762 181.292 23.3925 188.709C30.8088 196.125 39.6133 202.008 49.3032 206.022C58.9931 210.035 69.3787 212.101 79.867 212.101C90.3553 212.101 100.741 210.035 110.431 206.022C120.121 202.008 128.925 196.125 136.341 188.709C143.758 181.292 149.641 172.488 153.654 162.798C157.668 153.108 159.734 142.722 159.734 132.234V66.434C159.727 60.1009 157.209 54.029 152.731 49.5507C148.253 45.0723 142.181 42.5532 135.848 42.546ZM149.284 132.229C149.284 150.64 141.97 168.296 128.952 181.314C115.934 194.332 98.2775 201.646 79.867 201.646C61.4564 201.646 43.8 194.332 30.7818 181.314C17.7636 168.296 10.45 150.64 10.45 132.229V66.434C10.4806 62.8908 11.9095 59.5031 14.4259 57.0083C16.9422 54.5136 20.3421 53.1139 23.8855 53.1139C27.4289 53.1139 30.8288 54.5136 33.3451 57.0083C35.8614 59.5031 37.2904 62.8908 37.321 66.434V125.934C37.321 137.218 41.8035 148.04 49.7824 156.019C57.7613 163.998 68.5831 168.48 79.867 168.48C91.1509 168.48 101.973 163.998 109.952 156.019C117.93 148.04 122.413 137.218 122.413 125.934V66.434C122.413 62.8707 123.828 59.4533 126.348 56.9337C128.868 54.414 132.285 52.9985 135.848 52.9985C139.412 52.9985 142.829 54.414 145.349 56.9337C147.868 59.4533 149.284 62.8707 149.284 66.434V132.229Z" fill="url(#paint0_linear_14_12)"/>
<path d="M74.642 54.724V123.608C74.642 124.994 75.1925 126.323 76.1724 127.303C77.1522 128.283 78.4812 128.833 79.867 128.833C81.2527 128.833 82.5817 128.283 83.5616 127.303C84.5415 126.323 85.092 124.994 85.092 123.608V54.724C91.8381 53.4242 97.8575 49.6566 101.975 44.157C106.092 38.6573 108.012 31.8205 107.359 24.9814C106.706 18.1423 103.528 11.7922 98.4442 7.17081C93.3606 2.54946 86.7371 -0.0112305 79.867 -0.0112305C72.9968 -0.0112305 66.3733 2.54946 61.2898 7.17081C56.2063 11.7922 53.0278 18.1423 52.375 24.9814C51.7221 31.8205 53.6418 38.6573 57.7592 44.157C61.8765 49.6566 67.8959 53.4242 74.642 54.724ZM79.867 10.45C83.2625 10.45 86.5818 11.4569 89.4051 13.3434C92.2284 15.2299 94.4289 17.9112 95.7282 21.0483C97.0276 24.1854 97.3676 27.6374 96.7051 30.9677C96.0425 34.298 94.4073 37.357 92.0062 39.758C89.6051 42.1589 86.546 43.7939 83.2157 44.4562C79.8853 45.1186 76.4334 44.7784 73.2964 43.4789C70.1594 42.1793 67.4782 39.9787 65.5918 37.1553C63.7055 34.3319 62.6988 31.0126 62.699 27.617C62.7043 23.0655 64.5148 18.7019 67.7333 15.4836C70.9518 12.2653 75.3155 10.455 79.867 10.45Z" fill="url(#paint1_linear_14_12)"/>
</g>
<defs>
<linearGradient id="paint0_linear_14_12" x1="0" y1="127.324" x2="159.734" y2="127.324" gradientUnits="userSpaceOnUse">
<stop stop-color="#EC441E"/>
<stop offset="1" stop-color="#EE2A4A"/>
</linearGradient>
<linearGradient id="paint1_linear_14_12" x1="52.2499" y1="64.4109" x2="107.484" y2="64.4109" gradientUnits="userSpaceOnUse">
<stop stop-color="#EC441E"/>
<stop offset="1" stop-color="#EE2A4A"/>
</linearGradient>
</defs>
</svg>
